<?xml version="1.0" encoding="UTF-8"?>
<svg version="1.1" xmlns="http://www.w3.org/2000/svg" width="320" height="320">
<path d="M0 0 C2.85013853 1.25057303 2.85013853 1.25057303 5.5625 0 C11.28983511 -1.83706975 17.25875936 -0.6267872 23.0625 0.625 C26.37428612 0.99297624 28.69775336 0.30882924 31.87109375 -0.5703125 C37.83841341 -2.03596996 43.60840342 -1.15376321 48.875 1.9375 C53.55702931 7.69999761 54.0181053 12.35993465 53.97265625 19.54296875 C53.9712413 20.38217361 53.96982635 21.22137848 53.96836853 22.08601379 C53.96277215 24.76571216 53.95022035 27.4453269 53.9375 30.125 C53.93248453 31.94205608 53.92792171 33.75911348 53.92382812 35.57617188 C53.91280391 40.02998013 53.89554178 44.48372589 53.875 48.9375 C48.595 48.9375 43.315 48.9375 37.875 48.9375 C37.545 37.0575 37.215 25.1775 36.875 12.9375 C34.235 12.6075 31.595 12.2775 28.875 11.9375 C28.875 24.1475 28.875 36.3575 28.875 48.9375 C23.595 48.9375 18.315 48.9375 12.875 48.9375 C12.545 37.0575 12.215 25.1775 11.875 12.9375 C9.235 12.6075 6.595 12.2775 3.875 11.9375 C3.875 24.1475 3.875 36.3575 3.875 48.9375 C-1.075 48.9375 -6.025 48.9375 -11.125 48.9375 C-11.125 32.7675 -11.125 16.5975 -11.125 -0.0625 C-3.125 -1.0625 -3.125 -1.0625 0 0 Z " fill="#BC2F1C" transform="translate(27.125,119.0625)"/>
<path d="M0 0 C3.19303721 1.19738895 5.07103546 0.3229094 8.25390625 -0.59765625 C13.78969758 -1.74332437 18.90836319 -0.88779316 23.875 1.6875 C28.92012102 6.01188945 30.97203071 9.46243057 32.5 15.9375 C32.65878851 18.61180583 32.73547409 21.17199758 32.6953125 23.83984375 C32.6924826 24.5624086 32.68965271 25.28497345 32.68673706 26.0294342 C32.67564386 28.31146616 32.65056088 30.59308897 32.625 32.875 C32.61495611 34.43293699 32.60583274 35.99088021 32.59765625 37.54882812 C32.57745133 41.34533216 32.53828439 45.14096429 32.5 48.9375 C27.22 48.9375 21.94 48.9375 16.5 48.9375 C16.43941406 46.50632813 16.37882812 44.07515625 16.31640625 41.5703125 C16.25463053 39.22050827 16.19123718 36.87075288 16.12768555 34.52099609 C16.08432462 32.88562347 16.04265039 31.25020523 16.00268555 29.61474609 C15.94501088 27.26646159 15.88130871 24.91840696 15.81640625 22.5703125 C15.79969376 21.83692657 15.78298126 21.10354065 15.76576233 20.34793091 C15.71362038 16.51547692 15.71362038 16.51547692 14.5 12.9375 C11.2 12.6075 7.9 12.2775 4.5 11.9375 C4.5 24.1475 4.5 36.3575 4.5 48.9375 C-0.78 48.9375 -6.06 48.9375 -11.5 48.9375 C-11.52464247 42.11987576 -11.54283244 35.3022772 -11.55493164 28.48461914 C-11.55997333 26.16332549 -11.56680651 23.84203503 -11.57543945 21.52075195 C-11.58751225 18.19221205 -11.59322979 14.86371398 -11.59765625 11.53515625 C-11.60281754 10.49037613 -11.60797882 9.44559601 -11.61329651 8.36915588 C-11.61337204 7.40823532 -11.61344757 6.44731476 -11.61352539 5.45727539 C-11.615746 4.60678116 -11.61796661 3.75628693 -11.62025452 2.88002014 C-11.5 0.9375 -11.5 0.9375 -10.5 -0.0625 C-3.26712329 -1.3885274 -3.26712329 -1.3885274 0 0 Z " fill="#BD2E1B" transform="translate(222.5,119.0625)"/>
<path d="M0 0 C4.25809087 4.14008373 4.8826743 8.1720885 4.984375 13.91796875 C4.96453674 16.28533418 4.92891161 18.65261087 4.87890625 21.01953125 C4.85860352 22.83904297 4.85860352 22.83904297 4.83789062 24.6953125 C4.80265207 27.67884331 4.7533815 30.66145583 4.69140625 33.64453125 C6.01140625 33.64453125 7.33140625 33.64453125 8.69140625 33.64453125 C9.84915685 37.11778306 9.76007277 40.00520573 9.69140625 43.64453125 C4.32308957 46.32868959 0.70009152 47.12910264 -5.30859375 46.64453125 C-6.19546875 46.27328125 -7.08234375 45.90203125 -7.99609375 45.51953125 C-10.29324043 44.35252483 -10.29324043 44.35252483 -12.49609375 45.51953125 C-17.25505709 47.42311658 -22.4774944 47.58823103 -27.37109375 45.95703125 C-31.70644377 43.71460882 -34.27824363 41.03008751 -36.30859375 36.64453125 C-37.09825393 31.64606371 -36.88972427 27.85149464 -34.68359375 23.26953125 C-30.13376324 18.24077121 -26.23969941 16.15782557 -19.56640625 15.66015625 C-16.37293828 15.63805613 -13.44344005 16.04424153 -10.30859375 16.64453125 C-10.96859375 14.33453125 -11.62859375 12.02453125 -12.30859375 9.64453125 C-17.76997189 9.54700664 -22.90115357 9.8720398 -28.30859375 10.64453125 C-30.77208345 6.40732896 -31.52541655 4.37482914 -30.30859375 -0.35546875 C-19.28869268 -4.05523381 -10.40164717 -6.49288623 0 0 Z M-20.37109375 27.89453125 C-21.50557117 29.62833264 -21.50557117 29.62833264 -21.12109375 31.76953125 C-20.46503715 33.83417257 -20.46503715 33.83417257 -18.30859375 34.64453125 C-14.16355714 34.89240142 -14.16355714 34.89240142 -10.30859375 33.64453125 C-10.30859375 31.33453125 -10.30859375 29.02453125 -10.30859375 26.64453125 C-15.5937271 26.18141086 -15.5937271 26.18141086 -20.37109375 27.89453125 Z " fill="#BC2F1B" transform="translate(294.30859375,122.35546875)"/>
<path d="M0 0 C5.6716669 4.79513656 8.34749464 9.71712373 9.08984375 17.1875 C9.34470459 25.60518957 8.9168525 32.42208277 3.71875 39.453125 C-1.43922633 44.74683755 -6.99744146 46.62803837 -14.21875 46.828125 C-21.75522495 46.58380038 -26.75862508 45.39247258 -32.09375 39.890625 C-36.95748036 33.82761866 -38.95375515 26.54803781 -38.625 18.80859375 C-37.54881956 11.43431185 -34.97078851 4.82939738 -29.3203125 -0.171875 C-20.41029887 -6.18016005 -8.75041399 -6.24004932 0 0 Z M-21.28125 11.453125 C-23.35233385 17.66637654 -23.08698706 24.95109938 -21.09375 31.140625 C-18.94352898 33.88401044 -17.70761427 34.80048419 -14.28125 35.453125 C-11.54618879 35.25985397 -11.54618879 35.25985397 -9.28125 33.453125 C-6.16199712 27.32217968 -4.97280248 21.13505287 -6.85546875 14.3984375 C-8.20138356 10.96599867 -9.16690255 9.52935663 -12.28125 7.453125 C-16.98389718 7.453125 -17.9587211 8.31019226 -21.28125 11.453125 Z " fill="#BD2E1C" transform="translate(124.28125,122.546875)"/>
<path d="M0 0 C5.97927146 5.26745343 8.92910987 9.29006853 9.625 17.3125 C9.38449367 25.55300633 9.38449367 25.55300633 7.625 27.3125 C5.69832493 27.39998207 3.76848139 27.41947334 1.83984375 27.41015625 C0.67001953 27.40693359 -0.49980469 27.40371094 -1.70507812 27.40039062 C-2.93677734 27.39201172 -4.16847656 27.38363281 -5.4375 27.375 C-7.29084961 27.36823242 -7.29084961 27.36823242 -9.18164062 27.36132812 C-12.24614117 27.34949608 -15.31054721 27.33301173 -18.375 27.3125 C-17.75625 28.446875 -17.1375 29.58125 -16.5 30.75 C-16.15195313 31.38808594 -15.80390625 32.02617187 -15.4453125 32.68359375 C-14.46089976 34.47868315 -14.46089976 34.47868315 -12.375 35.3125 C-6.02060748 35.77812359 0.31773794 35.02317742 6.625 34.3125 C7.12 38.7675 7.12 38.7675 7.625 43.3125 C-0.54911212 48.76190808 -8.7428459 49.16992875 -18.375 48.3125 C-24.8094987 46.79790236 -27.82342838 42.97767119 -31.24609375 37.53125 C-35.0061624 30.14121888 -34.74953877 18.98365041 -32.43359375 11.11328125 C-29.39629375 4.74352043 -25.8125221 1.13902134 -19.25 -1.5 C-12.63234463 -3.51070664 -6.18047647 -3.09023824 0 0 Z M-16.0625 10.5625 C-17.69888612 12.50854963 -17.69888612 12.50854963 -18.375 16.3125 C-14.415 16.3125 -10.455 16.3125 -6.375 16.3125 C-6.705 14.6625 -7.035 13.0125 -7.375 11.3125 C-10.54462057 9.19941962 -12.72772009 8.09229266 -16.0625 10.5625 Z " fill="#BC2F1B" transform="translate(198.375,120.6875)"/>
<path d="M0 0 C0.474375 0.515625 0.94875 1.03125 1.4375 1.5625 C2.4275 1.0675 3.4175 0.5725 4.4375 0.0625 C8.57227234 -1.73853581 11.96948453 -1.67265871 16.4375 -1.4375 C16.29616501 0.33369803 16.14926792 2.10445287 16 3.875 C15.91878906 4.86113281 15.83757812 5.84726563 15.75390625 6.86328125 C15.4375 9.5625 15.4375 9.5625 14.4375 12.5625 C10.8075 12.8925 7.1775 13.2225 3.4375 13.5625 C3.4375 25.1125 3.4375 36.6625 3.4375 48.5625 C-1.8425 48.5625 -7.1225 48.5625 -12.5625 48.5625 C-12.58714247 41.74487576 -12.60533244 34.9272772 -12.61743164 28.10961914 C-12.62247333 25.78832549 -12.62930651 23.46703503 -12.63793945 21.14575195 C-12.65001225 17.81721205 -12.65572979 14.48871398 -12.66015625 11.16015625 C-12.66531754 10.11537613 -12.67047882 9.07059601 -12.67579651 7.99415588 C-12.67587204 7.03323532 -12.67594757 6.07231476 -12.67602539 5.08227539 C-12.678246 4.23178116 -12.68046661 3.38128693 -12.68275452 2.50502014 C-12.5625 0.5625 -12.5625 0.5625 -11.5625 -0.4375 C-3.8080762 -2.13623787 -3.8080762 -2.13623787 0 0 Z " fill="#BE2E1B" transform="translate(149.5625,119.4375)"/>
<path d="M0 0 C2.64 0 5.28 0 8 0 C8.66 2.64 9.32 5.28 10 8 C10.99 5.36 11.98 2.72 13 0 C15.64 0 18.28 0 21 0 C21 6.6 21 13.2 21 20 C19.35 20 17.7 20 16 20 C15.67 19.01 15.34 18.02 15 17 C14.34 17.99 13.68 18.98 13 20 C9.875 20.1875 9.875 20.1875 7 20 C6.67 19.01 6.34 18.02 6 17 C5.67 17.99 5.34 18.98 5 20 C3.02 20 1.04 20 -1 20 C-1.02696009 17.2291017 -1.04681952 14.4584655 -1.0625 11.6875 C-1.07087891 10.90181641 -1.07925781 10.11613281 -1.08789062 9.30664062 C-1.09111328 8.54931641 -1.09433594 7.79199219 -1.09765625 7.01171875 C-1.10289307 6.31522217 -1.10812988 5.61872559 -1.11352539 4.90112305 C-1 3 -1 3 0 0 Z " fill="#000200" transform="translate(218,176)"/>
<path d="M0 0 C2.75817753 0.16224574 3.74814358 0.31110769 6 2 C6.495 2.7425 6.495 2.7425 7 3.5 C7.66 2.51 8.32 1.52 9 0.5 C10.9453125 0.20703125 10.9453125 0.20703125 13.125 0.3125 C14.40375 0.374375 15.6825 0.43625 17 0.5 C18 2.5 18 2.5 17.4375 4.3125 C16.75781742 6.60898216 16.75781742 6.60898216 18.125 9 C19 11.5 19 11.5 18.125 13.8125 C14.83353274 16.42631224 12.12573831 15.77054022 8 15.5 C7.67 14.51 7.34 13.52 7 12.5 C7.66 11.51 8.32 10.52 9 9.5 C6.37886292 9.5 4.49064888 9.81292445 2 10.5 C3.32 10.5 4.64 10.5 6 10.5 C6 11.82 6 13.14 6 14.5 C2.95016004 16.02491998 0.3576631 15.73562548 -3 15.5 C-4.875 14.4375 -4.875 14.4375 -6 12.5 C-6.98491662 8.70103588 -7.26109504 6.3180978 -6.0625 2.5625 C-3.73036962 0.23036962 -3.16334745 0.13399078 0 0 Z " fill="#010200" transform="translate(56,180.5)"/>
<path d="M0 0 C1.65 0 3.3 0 5 0 C5 4.95 5 9.9 5 15 C10.75134653 14.75109787 10.75134653 14.75109787 12.3125 12.25 C13.04663791 9.84736682 13.58704141 7.47775153 14 5 C20.0546875 4.8046875 20.0546875 4.8046875 22 5 C24.35448092 7.35448092 24.33616746 8.155052 24.625 11.375 C24.69976562 12.14585937 24.77453125 12.91671875 24.8515625 13.7109375 C24.98725641 15.80348048 25 17.903062 25 20 C16.66666667 20 8.33333333 20 0 20 C0 13.4 0 6.8 0 0 Z " fill="#010100" transform="translate(16,176)"/>
<path d="M0 0 C0 0.66 0 1.32 0 2 C0.66 1.67 1.32 1.34 2 1 C8.33657351 0.53915829 8.33657351 0.53915829 10.67578125 2.1640625 C12.46828204 4.64924058 12.54164938 6.58788908 12.75 9.625 C12.82734375 10.60726562 12.9046875 11.58953125 12.984375 12.6015625 C12.98953125 13.39304688 12.9946875 14.18453125 13 15 C11.26150372 16.73849628 8.9213363 16.17216296 6.5625 16.1875 C5.07943359 16.20876953 5.07943359 16.20876953 3.56640625 16.23046875 C1 16 1 16 -1 14 C-1.38286803 10.26703674 -1.14915785 9.22373677 1 6 C0.67 5.34 0.34 4.68 0 4 C-0.33 4.66 -0.66 5.32 -1 6 C-1.99 6 -2.98 6 -4 6 C-4 9.3 -4 12.6 -4 16 C-5.65 16 -7.3 16 -9 16 C-10 15 -10 15 -10.09765625 11.83984375 C-10.08025391 9.90818359 -10.08025391 9.90818359 -10.0625 7.9375 C-10.05347656 6.64714844 -10.04445313 5.35679687 -10.03515625 4.02734375 C-10.02355469 3.02832031 -10.01195313 2.02929688 -10 1 C-3.375 0 -3.375 0 0 0 Z " fill="#010101" transform="translate(115,180)"/>
<path d="M0 0 C2.475 0.495 2.475 0.495 5 1 C5 7.27 5 13.54 5 20 C3.35 20 1.7 20 0 20 C0 16.7 0 13.4 0 10 C-1.32 10 -2.64 10 -4 10 C-3.39009109 13.55780196 -2.4216319 16.6828589 -1 20 C-3.875 20.1875 -3.875 20.1875 -7 20 C-7.66 19.01 -8.32 18.02 -9 17 C-9.37125 17.495 -9.7425 17.99 -10.125 18.5 C-12.74694393 20.59755514 -14.73842472 20.21743835 -18 20 C-16.68 17.36 -15.36 14.72 -14 12 C-14.495 11.401875 -14.99 10.80375 -15.5 10.1875 C-17 8 -17 8 -17 5 C-14.125 4.875 -14.125 4.875 -11 5 C-10.34 5.66 -9.68 6.32 -9 7 C-8.67 6.34 -8.34 5.68 -8 5 C-5.69 5 -3.38 5 -1 5 C-0.67 3.35 -0.34 1.7 0 0 Z " fill="#010200" transform="translate(271,176)"/>
<path d="M0 0 C1.65 0 3.3 0 5 0 C5 7.26 5 14.52 5 22 C1.37 22 -2.26 22 -6 22 C-9.3245397 17.5672804 -9.57079243 16.32739604 -9 11 C-7.8125 8.5625 -7.8125 8.5625 -6 7 C-3.3125 6.75 -3.3125 6.75 -1 7 C-1.020625 6.030625 -1.04125 5.06125 -1.0625 4.0625 C-1 1 -1 1 0 0 Z M-2 11 C-3.29633621 12.06645115 -3.29633621 12.06645115 -3.0625 14.5625 C-3.041875 15.366875 -3.02125 16.17125 -3 17 C-2.01 17.495 -2.01 17.495 -1 18 C-1 15.69 -1 13.38 -1 11 C-1.33 11 -1.66 11 -2 11 Z " fill="#000101" transform="translate(188,174)"/>
<path d="M0 0 C7.27481297 -0.42793017 7.27481297 -0.42793017 11 0 C13.25 2.0625 13.25 2.0625 14 5 C13.87924634 8.50185626 13.66503525 10.96919537 11.75 13.9375 C9.41628148 15.35440053 7.67863922 15.21718696 5 15 C5 16.65 5 18.3 5 20 C3.35 20 1.7 20 0 20 C0 13.4 0 6.8 0 0 Z M5 4 C5 5.98 5 7.96 5 10 C5.99 9.67 6.98 9.34 8 9 C7.67 7.35 7.34 5.7 7 4 C6.34 4 5.68 4 5 4 Z " fill="#010200" transform="translate(76,181)"/>
<path d="M0 0 C1.65 0 3.3 0 5 0 C4.773125 0.7425 4.54625 1.485 4.3125 2.25 C3.91483629 5.74944062 4.90224936 6.31487918 7 9 C7.1875 11.75 7.1875 11.75 7 14 C5.35 14.33 3.7 14.66 2 15 C3.32 15 4.64 15 6 15 C5.67 16.65 5.34 18.3 5 20 C-2.37531486 20.3627204 -2.37531486 20.3627204 -4.9375 18.875 C-6.93505222 15.34990784 -7.33657167 12.28509182 -6.3125 8.375 C-4.86454757 5.7548956 -3.17695989 4.03651086 -1 2 C-0.67 1.34 -0.34 0.68 0 0 Z " fill="#010200" transform="translate(247,176)"/>
<path d="M0 0 C10.39851715 -0.36700649 10.39851715 -0.36700649 12.84375 1.125 C14.52442783 3.85042351 14.28970839 6.01903988 14.1875 9.1875 C14.16042969 10.27417969 14.13335937 11.36085937 14.10546875 12.48046875 C14.07066406 13.31191406 14.03585938 14.14335937 14 15 C12.02 15 10.04 15 8 15 C8 11.37 8 7.74 8 4 C7.34 4 6.68 4 6 4 C6 7.63 6 11.26 6 15 C4.02 15 2.04 15 0 15 C0 10.05 0 5.1 0 0 Z " fill="#010100" transform="translate(129,181)"/>
<path d="M0 0 C1.27875 -0.061875 2.5575 -0.12375 3.875 -0.1875 C4.95394531 -0.23970703 4.95394531 -0.23970703 6.0546875 -0.29296875 C6.69664062 -0.19628906 7.33859375 -0.09960938 8 0 C10.26954631 3.40431947 10.36549949 5.16524202 10.625 9.1875 C10.69976562 10.27417969 10.77453125 11.36085937 10.8515625 12.48046875 C10.90054688 13.31191406 10.94953125 14.14335937 11 15 C9.04233719 15.08082094 7.08373272 15.13910778 5.125 15.1875 C4.03445312 15.22230469 2.94390625 15.25710937 1.8203125 15.29296875 C0.88960937 15.19628906 -0.04109375 15.09960938 -1 15 C-3 12 -3 12 -2.6875 9.4375 C-2 7 -2 7 -1 5 C-0.64386903 3.33805547 -0.30791692 1.671549 0 0 Z " fill="#010201" transform="translate(160,181)"/>
<path d="M0 0 C2.91279326 1.65058285 3.03147144 3.11329717 3.9375 6.375 C4 10 4 10 2.5 12.9375 C0 15 0 15 -3.5 15.625 C-7 15 -7 15 -9.5 12.9375 C-11.45640324 9.10621033 -11.13891039 7.1000774 -10 3 C-7.67176656 -1.00973537 -4.26219805 -0.45666408 0 0 Z M-4 4 C-5.29633621 5.06645115 -5.29633621 5.06645115 -5.0625 7.5625 C-5.041875 8.366875 -5.02125 9.17125 -5 10 C-4.01 10 -3.02 10 -2 10 C-2 8.35 -2 6.7 -2 5 C-2.66 4.67 -3.32 4.34 -4 4 Z " fill="#000200" transform="translate(300,181)"/>
<path d="M0 0 C3.25476005 0.20379713 3.75732947 0.36026851 6.0625 2.875 C7.03909704 5.73968465 7.12268565 6.86931705 6 9.625 C4.68 9.955 3.36 10.285 2 10.625 C3.32 10.625 4.64 10.625 6 10.625 C6 11.945 6 13.265 6 14.625 C2.95016004 16.14991998 0.3576631 15.86062548 -3 15.625 C-4.875 14.5625 -4.875 14.5625 -6 12.625 C-6.98491662 8.82603588 -7.26109504 6.4430978 -6.0625 2.6875 C-3.75825847 0.38325847 -3.13136954 0.2133714 0 0 Z " fill="#020101" transform="translate(201,180.375)"/>
<path d="M0 0 C1.9375 1.125 1.9375 1.125 3 3 C3.1875 6.1875 3.1875 6.1875 3 9 C1.35 9.33 -0.3 9.66 -2 10 C-0.68 10 0.64 10 2 10 C1.67 11.65 1.34 13.3 1 15 C-6.48029197 15.36788321 -6.48029197 15.36788321 -8.73828125 13.76953125 C-10.32755028 11.54061834 -10.40218928 10.21892792 -10.375 7.5 C-10.38273437 6.7265625 -10.39046875 5.953125 -10.3984375 5.15625 C-9.3305481 -0.62291619 -5.10780837 -0.54726518 0 0 Z " fill="#000100" transform="translate(101,181)"/>
<path d="M0 0 C3.63 0 7.26 0 11 0 C11 5.625 11 5.625 8 9 C8.99 9.33 9.98 9.66 11 10 C11 11.65 11 13.3 11 15 C7.04 15 3.08 15 -1 15 C-0.5205537 10.78087253 0.16625119 8.20336822 3 5 C2.01 4.67 1.02 4.34 0 4 C0 2.68 0 1.36 0 0 Z " fill="#010100" transform="translate(145,181)"/>
<path d="M0 0 C2.05078125 0.03255208 4.1015625 0.06510417 6.15234375 0.09765625 C6.15234375 1.41765625 6.15234375 2.73765625 6.15234375 4.09765625 C4.50234375 4.42765625 2.85234375 4.75765625 1.15234375 5.09765625 C1.15234375 6.74765625 1.15234375 8.39765625 1.15234375 10.09765625 C2.80234375 10.09765625 4.45234375 10.09765625 6.15234375 10.09765625 C5.82234375 11.74765625 5.49234375 13.39765625 5.15234375 15.09765625 C-1.24420797 15.45972522 -1.24420797 15.45972522 -3.72265625 13.97265625 C-5.33764583 11.28100696 -5.72222371 9.23346986 -5.84765625 6.09765625 C-2.94261646 0.15552941 -2.94261646 0.15552941 0 0 Z " fill="#020100" transform="translate(282.84765625,180.90234375)"/>
<path d="M0 0 C2.64 0 5.28 0 8 0 C7.85866501 1.77119803 7.71176792 3.54195287 7.5625 5.3125 C7.48128906 6.29863281 7.40007812 7.28476563 7.31640625 8.30078125 C7 11 7 11 6 14 C4.02 14 2.04 14 0 14 C0 12.68 0 11.36 0 10 C1.32 10 2.64 10 4 10 C4 7.03 4 4.06 4 1 C2.68 0.67 1.36 0.34 0 0 Z " fill="#B53120" transform="translate(158,118)"/>
<path d="M0 0 C2.97 0.495 2.97 0.495 6 1 C6 1.99 6 2.98 6 4 C4.02 4 2.04 4 0 4 C0 2.68 0 1.36 0 0 Z " fill="#AF3618" transform="translate(158,128)"/>
</svg>
